<?xml version="1.0" encoding="UTF-8"?>
<svg viewBox="0 0 767 414" xmlns="http://www.w3.org/2000/svg">
 <g fill-rule="evenodd" stroke="#000">
  <path d="m324 178v-1h5c3.3333 0.66666 5.3333 1 6 1h1v2h1l7 1h8v7h-7l-1 1-1 1h3v2l1 1h1c0 0.66666-1 0.66666-3 0s-3.3333 0.33334-4 3l-1 4h-2c0 0.66666-0.66669 1-2 1-1.3333-0.66666-2.3333-1-3-1h-3l-1 1v-1c-0.66669-1.3333-1-2.6667-1-4-1.3333-0.66666-4-1-8-1-4.6667-0.66666-8.6667-0.33334-12 1-3.3333 0-6.6667 0.33334-10 1l-4 1h-2c-0.66669 0-1-0.66666-1-2 0.66669-0.66666-0.33331-1.3333-3-2h-3v-1l1-1-2-1-1-1h1v-1h2l2-1 6-1c4-0.66666 6-1.6667 6-3 0-0.66666 0.33331-1 1-1h1v1c0.66669 1.3333 2 2 4 2h4l8-1c4.6667-0.66666 7-1.6667 7-3-0.66669-2-1-3.3333-1-4z"/>
  <path d="m68 206h9v1h-1v2l-3 1c-2 0-3 0.66666-3 2v6c-0.66666 2-1.3333 3-2 3h-4c-0.66666 0.66666-2.6667 0.66666-6 0-2.6667-0.66666-4 0-4 2s-2 3.3333-6 4l-7 1-1-1-1-1h-1v4l-1-4-1-4v-4c0-2 0.33334-3.3333 1-4 0-0.66666 2-2 6-4l6-2h1c0.66666 0 1-0.33334 1-1h4c2.6667-0.66666 7-1 13-1z"/>
  <path d="m363 260h2v1h1v5l-2 3c0 0.66666-0.33331 1-1 1h-1v-2c0-0.66666-0.33331-1-1-1v-1h-1v-4c0.66669-1.3333 1.6667-2 3-2z"/>
  <path d="m482 196h2c0 0.66666-1.3333 1.3333-4 2-2.6667 0-4 0.33334-4 1s-1.3333 1-4 1l-5 1v-3h-2v2l-1 3v3h1l5 2c4 0 6 0.33334 6 1h-4l-4 1h-3v2l-1 1v1l1 2v1h2v1l1 1v1h1c0.66669 0 1 0.33334 1 1h-6c-3.3333-0.66666-5.6667-0.66666-7 0s-4.3333 1.3333-9 2l-6 1h-1v1h-1c0 0.66666-0.66669 1.3333-2 2-1.3333 0.66666-4.6667 1.6667-10 3-5.3333 0-12 0.66666-20 2-8.6667 1.3333-16 2.6667-22 4-5.3333 0-10 1-14 3-3.3333 2-6 3-8 3s-4.6667-0.33334-8-1l-6-1-2 1-2 1h-4c-2 0-8 0.33334-18 1-9.3333 0.66666-15.333 0.66666-18 0l-4-1h-2v-6h2l1-1 1-1 8-3c5.3333-2 9.3333-3.6667 12-5 2.6667 0 4.3333-0.33334 5-1h1l6-1c3.3333 0 7.3333-0.66666 12-2 5.3333-1.3333 10-1.6667 14-1 3.3333 0.66666 5.6667 1 7 1 1.3333 0.66666 2.3333 0.66666 3 0 0-1.3333 0.66669-1.3333 2 0 2 0.66666 3 0.66666 3 0-0.66669-1.3333-0.66669-2.3333 0-3 0.66669-0.66666 1.6667-0.33334 3 1 2 1.3333 3 1.3333 3 0s0.66669-1.3333 2 0h1l2-1c1.3333-0.66666 2.6667-1 4-1 0.66669-0.66666 1.3333-0.66666 2 0h1c0.66669 0 1.3333-0.66666 2-2 0.66669-1.3333 1.3333-2 2-2 0.66669 0 1.6667-0.66666 3-2 1.3333-2 2.3333-3.3333 3-4l3-1c2-0.66666 3.3333-0.33334 4 1 0 0.66666 2.6667 0.66666 8 0 5.3333 0 7.6667-0.66666 7-2-0.66669 0-0.33331-0.66666 1-2 2 0 2.6667-0.33334 2-1-1.3333 0-2-0.33334-2-1 0.66669-1.3333 6.6667-2.6667 18-4s20-2 26-2h10z"/>
  <path d="m602 140h61v2c-0.66669 0.66666-1.6667 1.3333-3 2-1.3333 1.3333-4 2-8 2-3.3333 1.3333-6.6667 2.3333-10 3-2.6667 0.66666-4 1.6667-4 3s0.66669 2 2 2c1.3333 0.66666 2 1.3333 2 2 0 1.3333-0.33331 1.6667-1 1-0.66669-0.66666-1.3333-0.66666-2 0-0.66669 0.66666-1.6667 0-3-2-2-2-6-3-12-3h-9c0.66669 0 0.66669-0.33334 0-1s-3-1.3333-7-2l-7-1h-5v-1l-1-1c-0.66669-1.3333 0.33331-2.6667 3-4 2-1.3333 3.3333-2 4-2z"/>
  <path d="m385 153h1v1h4c2 1.3333 3.3333 2 4 2h1v1h-1v1h-2v5h-1v1h-3c-1.3333 0-3.3333 0.66666-6 2-2 0-4.6667 0.33334-8 1s-5 1.3333-5 2c0 0.66666-1.3333 1.3333-4 2-2.6667 0.66666-4.3333 1.3333-5 2 0 1.3333-2.6667 2.3333-8 3h-8l-1 1-1 1h-17c-0.66669-0.66666-1-1-1-1h-13v-1h3v-1h1v-1h5l1-1 1-1h-8c-4.6667 0-12.333 0.33334-23 1h-16v-1h7l4-2c2 0 7.6667-1.3333 17-4s15.667-4.3333 19-5c4-0.66666 6.6667-1 8-1s6-0.33334 14-1c8.6667-0.66666 14.667-1.6667 18-3 3.3333-1.3333 8-2 14-2 5.3333 0 8.3333-0.33334 9-1z"/>
  <path d="m40 250v-3h1c0.66666 0.66666 1 0.66666 1 0h1v1h32v3l5 1c3.3333 0 7.3333 0.33334 12 1l8 1h8v1h1v1h-3l-3 2c-2 0.66666-3 2.3333-3 5-1.3333 2.6667-2 4.6667-2 6-0.66666 1.3333-1.6667 2-3 2l-2 1h2l1 1v3h7l-1 1-1 1h-23c-10.667 0-16-0.66666-16-2v-5h-2c-1.3333-0.66666-4.3333-1.3333-9-2-4.6667-1.3333-7.3333-4.3333-8-9-0.66666-4-1.3333-6-2-6-0.66666-0.66666-1-2-1-4z"/>
  <path d="m403 208h2c-0.66669 0.66666-1.3333 1.3333-2 2-1.3333 1.3333-2 3-2 5-0.66669 2-1.3333 2.6667-2 2-0.66669-0.66666-1.3333-0.66666-2 0-0.66669 0.66666-1.3333 1-2 1h-1c-0.66669-0.66666-1.3333-0.66666-2 0-1.3333 0-2.6667 0.33334-4 1s-2 1-2 1h-1c-1.3333-1.3333-2-1.3333-2 0s-1 1.3333-3 0c-1.3333-1.3333-2.3333-1.6667-3-1-0.66669 0.66666-0.66669 1.6667 0 3 0 0.66666-1 0.66666-3 0-1.3333-1.3333-2-1.3333-2 0-0.66669 0.66666-1.6667 0.66666-3 0-1.3333 0-3.6667-0.33334-7-1-4-0.66666-8.6667-0.33334-14 1-4.6667 1.3333-8.6667 2-12 2l-6 1v-1h3l1-1 1-1h2v-1h1v-1h-6v-1h1l1-1 14-2c9.3333-1.3333 16-2.6667 20-4s10.667-2 20-2c8.6667-1.3333 13.667-2 15-2z"/>
  <path d="m565 133h-1c-1.3333 0.66666-2 1.3333-2 2l-1 1h-1s-1.3333 0.33334-4 1c-2 0.66666-7 1-15 1h-23l-11 1v-1h7l13-3c8.6667-2 17-3 25-3 8.6667 0 13 0.33334 13 1z"/>
  <path d="m118 91h8v4h-1v1h-1v1h-1v1l15 4c10 2.6667 16 4.3333 18 5 1.3333 0.66666 2.6667 1 4 1h1l1 1 2 1h4l9 7 9 7h1v1h1v1h2v1h1c0 0.66666 0.33334 1 1 1 0 0.66666 0.33334 1.3333 1 2v5c0.66666 2 1 5.6667 1 11v7l2 10c2 7.3333 3.6667 11 5 11s2 0.66666 2 2c-0.66666 1.3333-1 2.6667-1 4-0.66666 1.3333-0.66666 2 0 2h1l1 1 1 1h-1l-17 1c-11.333 0.66666-20.333 0.66666-27 0l-9-1h-1l-2-2c-2 0-3.3333-0.66666-4-2 0-1.3333-0.66666-2-2-2h-4c-2.6667-1.3333-4.6667-3-6-5l-2-3h-3v-1h-1v-2h1v-1h8v-1l-1-1v-1h-1v-1h-2l-2-1c-1.3333-0.66666-2.3333-1-3-1h-1v-1h-1v-1h-1l-1-1-1-1h3v1h1c0 0.66666 0.33334 1 1 1h1l1 1h2v-2l-1-1-1-1v-1h-1v-1h-1v-1h-4c-3.3333 0-5.6667 0.33334-7 1s-2.3333 1.6667-3 3v2l-1-2-1-2v-3l-1-1v-1h2v1l1 1v-1h1c0.66666 0 1-0.66666 1-2 0-2 1-3 3-3s3 0.33334 3 1 0.33334 1.3333 1 2v1h4v-1l-1-1v-2h-1v-1h-1v-2c0-0.66666-1.3333-3.3333-4-8-2-5.3333-3.3333-8-4-8h-1v-1h-1v1h-4c-2 0-3 1-3 3v3h-1v-3l-1-1c-0.66666-1.3333-1.3333-3.3333-2-6-0.66666-2.6667-1.6667-4-3-4-0.66666 0-1-2-1-6-0.66666-4-1.3333-6.3333-2-7-1.3333-0.66666-1.6667-2.3333-1-5v-5l10-2c7.3333-0.66666 12-1.3333 14-2zm34 50v-1h-1v-1h-1v-1l-1-1-1-1v-1h1v-1h1v-1h1v-1h1l1-2c1.3333-1.3333 3-2 5-2 2.6667-1.3333 7-1.6667 13-1 6 0 8.6667 0.66666 8 2-0.66666 2-1.6667 3.3333-3 4-1.3333 0.66666-2.3333 1.6667-3 3-0.66666 2-0.33334 3.3333 1 4 0.66666 0 1 0.66666 1 2 0 0.66666-1.6667 0.66666-5 0-4 0-6.6667 0.33334-8 1-1.3333 1.3333-2.3333 2.6667-3 4 0 1.3333-0.33334 2-1 2s-1.3333-1-2-3c-1.3333-2-2.3333-3.3333-3-4-0.66666 0-1-0.33334-1-1z"/>
  <path d="m416 284h4v1h1l1 1c0.66669 0 0.66669 0.33331 0 1-0.66669 0-1 0.33331-1 1v1h1l1 1h-1c-0.66669 0-1 0.33331-1 1s0.66669 1.3333 2 2c2 0.66669 3 1.3333 3 2 0 0.66669 1 1.6667 3 3s3 2.6667 3 4c0 0.66669-0.33331 1-1 1v-1c-0.66669 0-1-0.66669-1-2-0.66669-0.66669-5.6667-0.66669-15 0-9.3333 0-19 0.33331-29 1-10 0-15 0.33331-15 1-0.66669 0.66669-1.3333 1-2 1-0.66669 0.66669-7 1.6667-19 3l-18 2h-7l-1-1c-0.66669 0-1-0.33331-1-1 0-1.3333-2.6667-1.3333-8 0-4.6667 0.66669-11 1.3333-19 2h-11v1h-1v-1h-2v-2h-3v-1l1-1v-2h1v-1h1v-1h1l1-1 1-1 7-1c4.6667-0.66669 9.3333-1 14-1 4 0 6.6667 0.33331 8 1 0.66669 0 1-0.33331 1-1 0-1.3333 1-1.6667 3-1 2 0.66669 3 0.33331 3-1 0.66669-2 1-2.6667 1-2 0 0.66669 0.66669 1.3333 2 2 1.3333 1.3333 2.3333 1.3333 3 0 0-0.66669 0.33331-1 1-1s1.3333 0.33331 2 1c0.66669 1.3333 4.6667 1.3333 12 0 6.6667-1.3333 11-2 13-2h8c3.3333 0 5-0.66669 5-2s0.33331-1.3333 1 0c0.66669 0 1.6667 0.33331 3 1h1v-1l-1-1v-2h4v-2h-1v-1h41z"/>
  <path d="m430 300v1h1v2l-1 1c-0.66669 1.3333-1 2-1 2h-1s-3.6667 1.3333-11 4c-7.3333 1.3333-17.667 3-31 5l-21 2h-3c-2.6667 0.66669-10 1.6667-22 3l-19 2-1-1v-1h-1v-1h-1v-1h1l2-1 2-1h-1v-1l2-2c0-1.3333 0.66669-1.6667 2-1 1.3333 1.3333 2 1.6667 2 1v-1h1v-1h1v-1h1v-1h1v-1l18-2c12-1.3333 18.333-2.3333 19-3 0.66669 0 1.3333-0.33331 2-1 0-0.66669 5-1 15-1 10-0.66669 19.667-1 29-1h15z"/>
  <path d="m564 133h1l19 3c13.333 2.6667 20 4 20 4h-2c-0.66669 0-2 0.66666-4 2-2.6667 1.3333-3.6667 2.6667-3 4l1 1v1h5l7 1c4 0.66666 6.3333 1.3333 7 2 0.66669 0.66666 0.66669 1 0 1h9c6 0 10 1 12 3 1.3333 2 2.3333 2.6667 3 2 0.66669-0.66666 1.3333-0.66666 2 0 0.66669 0.66666 1 0.33334 1-1 0-0.66666-0.66669-1.3333-2-2-1.3333 0-2-0.66666-2-2s1.3333-2.3333 4-3c3.3333-0.66666 6.6667-1.6667 10-3 4 0 6.6667-0.66666 8-2 1.3333-0.66666 2.3333-1.3333 3-2v-2l34 3c22.667 2 39 4.3333 49 7 10.667 2.6667 16.667 4 18 4 0.66663 0 1.3334 0.33334 2 1h1v2l-1 2v1h-2l-1 1-1 1h-1c-0.66663 0-1.3334 0.33334-2 1-0.66663 0.66666-7 3-19 7s-31 8-57 12-39 6.3333-39 7c0 0.66666 0.66669 1 2 1 0.66669 0.66666 1 1.3333 1 2v1h-2l-2-1c-0.66669 0-1.3333-0.33334-2-1-0.66669-0.66666-5.6667-0.66666-15 0l-15 1-1 1h-1v-1c0-0.66666 0.33331-1 1-1 0.66669-0.66666 0.66669-1.3333 0-2 0-1.3333-0.33331-2-1-2-0.66669 0.66666-1 1.3333-1 2 0.66669 0.66666 0.66669 1 0 1s-1-0.66666-1-2c-0.66669-0.66666-3-1-7-1-4.6667-0.66666-7.3333-1.3333-8-2 0-1.3333-2-2.3333-6-3-3.3333 0-5 0.33334-5 1 0.66669 0.66666 0 1-2 1-1.3333 0-2-0.33334-2-1s-9 0-27 2c-18.667 2-28.333 4-29 6l-1 2h-3c-1.3333-0.66666-3-1-5-1h-8v-1h-1v-1h1v-1h1v-1h1c0.66669 0 1-0.33334 1-1s1-1 3-1h2v-1h-1v-1h-1s-0.33331-0.33334-1-1-0.66669-1 0-1 0.66669-0.33334 0-1-1.3333-0.66666-2 0h-1v-3h-1l1-1 1-1h5c2.6667 0 4 0.33334 4 1s1 0.66666 3 0 4.6667-1 8-1c3.3333-1.3333 4.3333-2 3-2-0.66669 0-1-0.33334-1-1s1.6667-1.3333 5-2c3.3333-0.66666 6-1 8-1 1.3333-1.3333 3.3333-2 6-2 2.6667-1.3333 3.6667-2 3-2-0.66669-0.66666-1-1-1-1 0-0.66666 0.66669-1 2-1h2v-2l1-2v-1h-2c-1.3333-0.66666-2-1.3333-2-2-0.66669-0.66666-1.3333-1.3333-2-2-0.66669-0.66666-1-1.3333-1-2 0-0.66666-0.66669-1-2-1h-4v-2h-1l1-1 2-1h-4l2-1 1-1 10-1c6.6667-0.66666 11-1.3333 13-2h2v-2h1v1h2v-1h-1v-1h-4c-2 0-3.3333-0.66666-4-2l-1-2 1-1c0-0.66666 0.66669-1.3333 2-2zm199 24v-1h2v1l-1 1v-1h-1zm-137 11h2l3-1c2 0 3 1 3 3 0 2.6667-2 4-6 4-4.6667 0-8.3333 0.33334-11 1s-4 0.33334-4-1v-3h3c2.6667 0.66666 4.6667 0.33334 6-1 0.66669-1.3333 2-2 4-2z"/>
  <path d="m237 202h7l-2 1-3 1h-1c-0.66666 0-1 1.3333-1 4v3c0 0.66666 0.33334 1 1 1v4l1 1 1 1 1 3c0.66669 2 1 3.3333 1 4 0.66669 0.66666 1.3333 1 2 1v1l-4-1c-2-1.3333-3-0.66666-3 2 0.66666 2.6667 1 5 1 7s-0.33334 3.3333-1 4v1h-1c-1.3333 0-2.3333 0.33334-3 1-0.66666 0.66666-2 0.66666-4 0s-3-0.33334-3 1c0 0.66666-0.66666 1-2 1-0.66666 0.66666-2.3333 0.33334-5-1-2.6667 0-5.6667-0.66666-9-2-2.6667-1.3333-4-1.3333-4 0 0 0.66666-0.66666 0.66666-2 0h-3c-1.3333 1.3333-2.6667 2-4 2s-2.6667 1-4 3l-3 3-2 1h-2v-3h-4v-1l2-1h3v-1h1v-1h-26l-1 1h-1v-1h1l3-1h3v-1c-0.66666-0.66666-1-1.3333-1-2 0-0.66666-0.33334-3.6667-1-9s-1.3333-8-2-8c-0.66666 0-1-0.33334-1-1 0-1.3333-2.6667-2.3333-8-3l-7-1-3-1h-4v-1h9l6-2c4-1.3333 6.3333-2 7-2 0.66666 0 1.3333-0.33334 2-1l2-1h1l1-1h1c0.66666 0 1-0.33334 1-1h2c1.3333 0 2.3333-0.33334 3-1 0-0.66666 1.6667-1 5-1h18l16-1c10.667-0.66666 18.333-1 23-1z"/>
  <path d="m92 245v1h1l5 1c4 0.66666 6 1 6 1h1v1l1 1v1h1v1c0.66666 0 0 0.33334-2 1l-3 1h-2l-8-1c-4.6667-0.66666-8.6667-1-12-1l-5-1v-3h17-1l-3-1h-2v-1c0-1.3333 1-2 3-2s3 0.33334 3 1z"/>
  <path d="m277 327v-1h9l12 1c8.6667 0.66669 12.667 1.6667 12 3 0 0.66669 1 1 3 1s3 1 3 3c0 1.3333 0.33331 2.3333 1 3v3l1 1v1c0 1.3333-0.33331 2.6667-1 4 0 0.66669-1.6667 1-5 1-3.3333 0.66669-8.6667 1-16 1h-21c-6.6667 0.66669-10 1.3333-10 2v2h-1l-1-1-1-1v-8h1s-0.33331-0.66669-1-2c0-0.66669 0.33331-1 1-1s1.3333-1 2-3c0.66669-1.3333 2-2 4-2s3-0.66669 3-2l1-1h1l1 1h1v-1h1v-1h2l-2-1-2-1h3c1.3333 0 2 0.33331 2 1s0.33331 1 1 1v-1h1v-1h8l-6-1h-7z"/>
  <path d="m303 178h1l-1 2c-0.66669 1.3333-1 2.3333-1 3h-1c-0.66669 0-1 0.33334-1 1 0 1.3333-2 2.3333-6 3l-6 1-2 1h-6c-2-0.66666-3.3333-1-4-1l2-1c0.66669-0.66666 1.3333-1.6667 2-3 0-2 1-3 3-3 2-0.66666 3-1 3-1h8c5.3333 0 8-0.33334 8-1s0.33331-1 1-1z"/>
  <path d="m164 107h1v1h1l1 1 1 1h-4l-2-1-1-1h-1c-1.3333 0-2.6667-0.33334-4-1-2-0.66666-8-2.3333-18-5l-15-4v-1h1v-1h1v-1h1v-4h-6l4-1h12c5.3333 0 11.333 2.6667 18 8 6.6667 5.3333 10 8.3333 10 9z"/>
  <path d="m239 108l4-2v2c0.66669 0.66666 1 1 1 1v1c-0.66669 1.3333-1.3333 2-2 2-0.66669 0-1 0.66666-1 2v2h2v1h1v2s-0.33331 0.33334-1 1c0 0.66666-0.33331 1.3333-1 2-1.3333 0-2.3333-0.33334-3-1-0.66669-0.66666-2.3333-1.6667-5-3-2-1.3333-2.3333-2-1-2 1.3333-0.66666 2-1.6667 2-3 0.66666-1.3333 2-3 4-5z"/>
  <path d="m64 221h2v1h-2l1 4c0.66666 2 1.6667 3.3333 3 4 1.3333 0 2.6667 0.66666 4 2s2 2.6667 2 4c0.66666 1.3333 2 2.3333 4 3 2.6667 0.66666 4 2 4 4 0.66666 2 1.3333 3 2 3h1l1 1h2l3 1h1-49v-1h-1v-1l1-1 1-1 2-1 1-1h2v-3h-3c-2-0.66666-3.3333-1-4-1-1.3333 0-2.3333-0.66666-3-2l-1-1v-9h1l1 1 1 1 7-2c4 0 5.6667-0.33334 5-1-0.66666 0-1-0.33334-1-1s0.66666-1 2-1c0.66666 0 0.66666-0.33334 0-1 0-1.3333 1.3333-1.6667 4-1 3.3333 0.66666 5.3333 0.66666 6 0z"/>
  <path d="m371 329h2l1 1 1 3v3h5c2.6667 0 4 0.66669 4 2 0 0.66669-0.33331 1-1 1v-1h-1s-8 0.66669-24 2l-25 3v1h-1s-0.33331-0.66669-1-2c-0.66669-0.66669-1.6667-1-3-1-2 0.66669-3.3333 1-4 1h-2v1h-1v-1h-1l-1-1h-1v-1h-1v-2h1v-5l26-2c17.333-0.66669 26.333-1.3333 27-2z"/>
  <path d="m241 171l7-1h1l9 1c6 0.66666 9.6667 1 11 1s2.6667 0.33334 4 1h18c10.667-0.66666 18.333-1 23-1h8l-1 1-1 1h-5v1h-1v1h-3v1h-3c-1.3333 0.66666-2.3333 1-3 1h-1c-0.66669 0-1 0.33334-1 1h-1c0 0.66666-2.6667 1-8 1h-20c-5.3333 0-8.6667 0.66666-10 2l-3 1v-1h-5c-2.6667 0-5.3333 0.33334-8 1h-19c-6 0-9 0.33334-9 1v1h-4v-3l1-1 1-1h1l-1-1-2-1h2l5-2c3.3333 0 6-0.66666 8-2s5.3333-2.3333 10-3z"/>
  <path d="m626 168h2l3-1c2 0 3 1 3 3 0 2.6667-2 4-6 4-4.6667 0-8.3333 0.33334-11 1s-4 0.33334-4-1v-3h3c2.6667 0.66666 4.6667 0.33334 6-1 0.66669-1.3333 2-2 4-2z"/>
  <path d="m350 120h1s0.33331 0.33334 1 1l6 6c3.3333 4.6667 5.3333 7 6 7v2h3v1h1v3h-14c-0.66669 1.3333-1.6667 2-3 2h-3c0 0.66666-2 1-6 1-4.6667 0.66666-7.3333 1-8 1h-8c-4.6667-0.66666-7-0.66666-7 0s-0.33331 1-1 1c-1.3333 0.66666-5.3333 1-12 1h-10c0 0.66666-0.33331 1-1 1h-1v-1h-2v-1c-0.66669-0.66666-1-1-1-1v-2h-10l-10 2h-1l1 1c0.66669 0.66666 1 1 1 1h-2c-1.3333 0-4.6667 0.66666-10 2l-7 1c0-0.66666-3-1-9-1h-13v-1h1v-3h2l6-5 6-5v-2l-2-1c-0.66669-0.66666-0.66669-1 0-1 1.3333-1.3333 2-2.3333 2-3l-1-1v-1h5l4-1h1c0.66669 0 1-0.33334 1-1v-1h1c0.66669 0 1-0.33334 1-1v-1l1-2c0.66669-0.66666 5.6667-1.3333 15-2 9.3333 0 14-0.66666 14-2v-1l2-1h4c1.3333 0.66666 2 1.3333 2 2 0 0.66666 1.3333 1 4 1 3.3333 0.66666 6 1 8 1 1.3333 0 3.6667-0.33334 7-1s5.6667-1 7-1c1.3333-1.3333 2-1.6667 2-1 0.66669 0.66666 1.6667 1 3 1h2l1-1 2-1h2c0.66669 0 1-0.33334 1-1s1.6667-0.33334 5 1c2.6667 0.66666 4.6667 2 6 4 2 2.6667 3.3333 4 4 4z"/>
  <path d="m270 32v-2h2c0.66669 0.66666 1 1.3333 1 2 0 0.66666 0.33331 1 1 1h1v-1l1-1v1h1v-1h1v1h1l23 29c16 19.333 26 29 30 29 4.6667 1.3333 7.3333 2 8 2h1l2 1 2 1h2v3h-4c-2.6667 0.66666-5.3333 1.6667-8 3-2 1.3333-3.3333 2-4 2l-1 1v2h1c0.66669 0.66666 0.33331 1-1 1h-1v1h-1v1h-1l3 1 2 1 1 1v1h-1l-2 1-1 1h-2c-1.3333 0-2.3333-0.33334-3-1 0-0.66666-0.66669-0.33334-2 1-1.3333 0-3.6667 0.33334-7 1s-5.6667 1-7 1c-2 0-4.6667-0.33334-8-1-2.6667 0-4-0.33334-4-1s-0.66669-1.3333-2-2h-4l-2 1v-3c0-2-0.33331-3-1-3 0-0.66666-4.6667-1-14-1s-15-0.33334-17-1c-1.3333-0.66666-3.3333-1.3333-6-2-3.3333 0-5.3333 1-6 3v3s-0.33331-0.33334-1-1v-3c0-0.66666-0.33331-0.66666-1 0-1.3333 0.66666-2.6667 1-4 1-2 0-3.3333 0.33334-4 1-1.3333 0.66666-2.6667 1-4 1h-3v1h-1v-1h-3l-1 1h-1v-3l1-2v-1h1v-1l3-2c2-1.3333 3-2.3333 3-3h1v-1h2v-1h1v-1h1v-2h-2v-1h-1v-1h-1v1l-1 1v1h-1l-1 1c-0.66666 0-1.6667 0.33334-3 1l-3 1-1 1-2 1h-1v-2h2l1-1h2v-1c0-0.66666 0.66666-1.3333 2-2 1.3333 0 2-1.3333 2-4 0-3.3333-0.33334-6-1-8-0.66666-2.6667-0.66666-4 0-4s0.66666-1.3333 0-4l-1-4-1-2v-2h11c6 0 12-0.33334 18-1 6.6667-0.66666 10-1.6667 10-3 0.66669-1.3333 1.3333-2.3333 2-3 0.66669 0 1-0.33334 1-1 0-1.3333 0.33331-2 1-2 1.3333-0.66666 1.3333-2.3333 0-5 0-2.6667-0.66669-5.3333-2-8s-2-4.3333-2-5v-2h2v1c0 0.66666 0.33331 1 1 1s1-0.33334 1-1 0.66669-1 2-1c1.3333-0.66666 2-1.3333 2-2zm-2 6v-1 1z"/>
  <path d="m268 240h2v4h1c0.66669 0.66666 1.3333 1.6667 2 3 0 1.3333 1.3333 2.6667 4 4 2 1.3333 3.3333 2.3333 4 3 0.66669 1.3333 1 2 1 2v9h-1v1h-1l-4 1c-2 0.66666-4 1-6 1h-2l-2 1h-4c-1.3333 0.66666-3.3333 1-6 1h-7c-2 0-3-1.6667-3-5-1.3333-3.3333-2.3333-6.3333-3-9-0.66669-2.6667-2.3333-4.3333-5-5l-3-1v-1h-1v-1h1l1-1 1-1h1l2-1h1l4-1c2.6667 0 5-0.33334 7-1l2-1h1c0.66669 0 1.6667-0.33334 3-1h6c2.6667-0.66666 4-1 4-1z"/>
  <path d="m152 141v-1h-1v-1h-1v-1l-1-1-1-1v-1h1v-1h1v-1h1v-1h1l1-2c1.3333-1.3333 3-2 5-2 2.6667-1.3333 7-1.6667 13-1 6 0 8.6667 0.66666 8 2-0.66666 2-1.6667 3.3333-3 4-1.3333 0.66666-2.3333 1.6667-3 3-0.66666 2-0.33334 3.3333 1 4 0.66666 0 1 0.66666 1 2 0 0.66666-1.6667 0.66666-5 0-4 0-6.6667 0.33334-8 1-1.3333 1.3333-2.3333 2.6667-3 4 0 1.3333-0.33334 2-1 2s-1.3333-1-2-3c-1.3333-2-2.3333-3.3333-3-4-0.66666 0-1-0.33334-1-1z"/>
  <path d="m106 163l1 1h2l1 1 1 1h2v-2c-0.66666-1.3333-1-2.6667-1-4v-1l2 4c1.3333 2.6667 2.6667 4 4 4 0.66666-0.66666 0.66666-2.6667 0-6-1.3333-3.3333-1.3333-5 0-5h3l1 1 1 1h1l1 1h1v1c0.66666 0 1.6667 0.33334 3 1l2 1h2v1h1v1l1 1v1h-8v1h-1v2h1v1h3l2 3c1.3333 2 3.3333 3.6667 6 5h4c1.3333 0 2 0.66666 2 2 0.66666 1.3333 2 2 4 2l2 2h1v1h1v1h2l2 1c1.3333 0.66666 2 2.3333 2 5v7c1.3333 2.6667 2.3333 4.3333 3 5 1.3333 0 2-0.33334 2-1s0.33334-1 1-1 1.3333 0.33334 2 1h1v1h3v2h-1v1h-1l-1 1h-1l-2 1c-0.66666 0.66666-1.3333 1-2 1-0.66666 0-3 0.66666-7 2l-6 2h-9v1c-0.66666-0.66666-1.6667-0.66666-3 0s-6.3333 1.3333-15 2c-8.6667 0.66666-15.333 1.6667-20 3-4.6667 0-8 0.66666-10 2-2 0-5.3333 0.66666-10 2h-10v-2l-1-2-1-1v-3h5v-1l1-1h2c2 0 3.3333-0.33334 4-1 1.3333-0.66666 2-1.6667 2-3-0.66666-1.3333 1-2.3333 5-3 4-0.66666 6.3333-1.3333 7-2 0-0.66666 0.33334-1.3333 1-2l1-1h1v-1h1v-1h1v-1h-1v-1l-1-1v-1h-3c-1.3333 0-2-0.33334-2-1s-1.3333-1.6667-4-3c-2-0.66666-3-1.3333-3-2 0-0.66666-4.3333-1.3333-13-2-9.3333-1.3333-16.333-1.3333-21 0-4.6667 0-7 0.33334-7 1l-1 1h-2v1h1v2l-1 1v1h-1v-1h-1v-1c-0.66666 0-7.3333-7.3333-20-22-13.333-14-20.333-22.667-21-26v-7h1l1-1c0.66666 0 1.3333-0.66666 2-2 1.3333-0.66666 7.3333-1.6667 18-3 11.333-1.3333 28 3.3333 50 14s33.333 16.333 34 17z"/>
  <path d="m421 328v-2h2v1h1v1h4v2h-3l-1 1-1 1h-1c-0.66669 0-1-0.33331-1-1-0.66669 0-2 0.33331-4 1-2.6667 0-6.3333 0.66669-11 2-5.3333 1.3333-8.6667 2.6667-10 4s-3.6667 2-7 2c-4 0.66669-6 0.66669-6 0v-1c0.66669 0 0.66669-0.33331 0-1v-1c0-0.66669-1.3333-1-4-1h-4v-3l-1-3-1-1h-1v-1h-1v-1h1v-1h5l3 1c1.3333 0.66669 2 0.33331 2-1 0-2 2-3 6-3 4 0.66669 6.6667 1.3333 8 2 0.66669 0.66669 3.6667 1.3333 9 2 5.3333 0.66669 9.3333 1 12 1 2.6667 0.66669 4 0.66669 4 0z"/>
  <path d="m230 91v-1h1v1h1v1h2v2h-1v1h-1v1h-2v1h-1c0 0.66666-1 1.6667-3 3l-3 2v1h-1v1l-1 2v3h1l1-1h3v1h1v-1h3c1.3333 0 2.6667-0.33334 4-1 0.66666-0.66666 2-1 4-1 1.3333 0 2.6667-0.33334 4-1 0.66669-0.66666 1-0.66666 1 0v1l-4 2c-2 2-3.3333 3.6667-4 5 0 1.3333-0.66666 2.3333-2 3-1.3333 0-1 0.66666 1 2 2.6667 1.3333 4.3333 2.3333 5 3 0.66669 0.66666 1.6667 1 3 1 0.66669-0.66666 1-1.3333 1-2 0.66669-0.66666 1-1 1-1v4l1 1v2l1 1c0 0.66666-0.66669 1.6667-2 3-0.66669 0-0.33331 0.33334 1 1h2v1l-1 1-1-1h-4v1h-1v1h-3v1h-1v1h-1l-1 1h-1v-2l2-1 2-2h1v-2h-1v1h-1v-1h-3c-2 0-3.6667-0.33334-5-1-2-0.66666-7.3333-1-16-1s-14 0.33334-16 1l-2 1v2h-1v-3h-2v-2h2v-13l1-4 10-5c6.6667-3.3333 10-5.3333 10-6 0-0.66666 0.66666-1 2-1h2l2-1 1-1 3-1c1.3333-0.66666 2.3333-1 3-1l1-1h1v-1l1-1z"/>
  <path d="m216 290l-1-5 3 1h27l1 1c0 0.66669-4.3333 2.6667-13 6-8.6667 4-13 7.3333-13 10v4l-1-2-1-2v-5l-1-2c-0.66666-1.3333-1-3.3333-1-6z"/>
  <path d="m420 285v-1l11 2c7.3333 1.3333 11.667 2.3333 13 3l2 1h1l1 1 1 1h1v4l-1 1-1 1h-1v1h-1v1h-1c-0.66669 0-3.6667 1-9 3l-7 3s0.33331-0.66669 1-2l1-1c0.66669 0 0.66669-0.33331 0-1v-2h-1v-1c0-0.66669-0.66669-1.3333-2-2-1.3333-0.66669-2-1.3333-2-2 0-0.66669-1-1.3333-3-2-1.3333-0.66669-2-1.3333-2-2 0-0.66669 0.33331-1 1-1h1l-1-1h-1v-1c0-0.66669 0.33331-1 1-1 0.66669-0.66669 0.66669-1 0-1-1.3333 0-2-0.33331-2-1z"/>
  <path d="m283 401h5c0 0.66669-4.3333 1.3333-13 2l-13 1h-2c-2 0-3.3333 0.33331-4 1 0 0.66669-0.66669 1-2 1l-2-1v-1h-1c-0.66669 0-1-0.66669-1-2v-1h1v1h1v-1h1v-1h12c8-1.3333 12.333-1.3333 13 0 0 0.66669 1.6667 1 5 1z"/>
  <path d="m288 110v4c0 1.3333-4.6667 2-14 2-9.3333 0.66666-14.667 2-16 4l-2 3s-0.33331-0.33334-1-1c0-0.66666 0.33331-1 1-1s1.3333-0.66666 2-2c0-1.3333-0.66669-1.6667-2-1h-6l-2-1c-1.3333 0-2 1.3333-2 4v4h-1v-1l-1-1v-6h-1v-1h-2v-2c0-1.3333 0.33331-2 1-2s1.3333-0.66666 2-2v-4c0.66669-2 2.6667-3 6-3 2.6667 0.66666 4.6667 1.3333 6 2 2 0.66666 7.6667 1 17 1s14 0.33334 14 1c0.66669 0 1 1 1 3z"/>
  <path d="m344 392h1l7-1h12l3 1h2v1h-1v1h-1l-2 1-2 1h-2c-1.3333 0-3 1.3333-5 4l-3 2v1h-1v-1c0-0.66669-0.33331-1.6667-1-3 0-1.3333-1-2-3-2h-3l-1-1h-4v-3h2l1-1h1z"/>
  <path d="m508 192h4c2 0 3.6667 0.33334 5 1h2v1h-2v1h1v8h-1v1h-1c-1.3333 0-4 0.66666-8 2l-6 2h-4c-2.6667 0-7 0.33334-13 1h-9c0-0.66666-2-1-6-1l-5-2h-1v-3l1-3v-2h2v3l5-1c2.6667 0 4-0.33334 4-1s1.3333-1 4-1c2.6667-0.66666 4-1.3333 4-2l7-1c4.6667-0.66666 7.6667-1 9-1h4l3-2h1z"/>
  <path d="m284 180h2s-1 0.33334-3 1c-2 0-3 1-3 3-0.66669 1.3333-1.3333 2.3333-2 3l-2 1c0.66669 0 2 0.33334 4 1h4v1h-1l1 1 2 1-1 1v1h-5c-3.3333 0-5 0.33334-5 1 0.66669 0.66666 0.33331 1-1 1h-2l-6-1-7-1h-9v-1h4c2.6667-0.66666 4.6667-1 6-1h1v-1h-1v-5c0-0.66666-0.33331-1.3333-1-2h-1v-1l1-1h2v1l3-1c1.3333-1.3333 4.6667-2 10-2h10z"/>
  <path d="m182 245v1h4v3c0 0.66666-1 1-3 1l-3 1v3h-1v1h1c0 0.66666 0.66666 1 2 1h3v3h-1l-1 1h-2c-1.3333 0-2-0.33334-2-1s-0.33334-1-1-1-1 0.66666-1 2c-0.66666 2-2 3.3333-4 4l-3 1v2h1l1 1h1c0.66666 0 1 0.33334 1 1l-1 1v1h1l1 1h1v1h-2c-1.3333 0.66666-4.3333 1-9 1h-9c-0.66666 0-1.3333 0.66666-2 2-0.66666 0-9.6667 0.33334-27 1l-26 1 1-1 1-1h-7v-3l-1-1h-2l2-1c1.3333 0 2.3333-0.66666 3-2 0-1.3333 0.66666-3.3333 2-6 0-2.6667 1-4.3333 3-5l3-2h3v-1h-1v-1h-6l3-1c2-0.66666 2.6667-1 2-1v-1h-1v-1l-1-1v-1h6c2 0 3.3333 0.66666 4 2 0.66666 1.3333 1.6667 2 3 2 0.66666 0 1.3333 0.33334 2 1 0 0.66666 2.6667 0.66666 8 0s10-1.3333 14-2c3.3333-0.66666 10.667-1.6667 22-3s17-2.3333 17-3h1z"/>
  <path d="m307 0h5l2 1 1 1h-1v1h-1v1h-2l-1 1-2 1h-2c-2 0-6.6667 0.66667-14 2-7.3333 0-11.333 0.66667-12 2 0 0.66667-2.6667 1.3333-8 2h-9v1l1 1v2h1v1h1v1h1v1h1l2 3c2.6667 2.6667 4 4.3333 4 5v1h1v1h1v1h1v2h-1v-1l-1 1v1h-1c-0.66669 0-1-0.33334-1-1s-0.33331-1.3333-1-2h-2v2c0 0.66666-0.66669 1.3333-2 2-1.3333 0-1.6667 0.33334-1 1 0.66669 0.66666 1 1 1 1l1 1v1h-2v-1h-1v-1h-1c-0.66669 0-1-0.33334-1-1h-1v-1h-1s-1.3333-1.6667-4-5c-1.3333-3.3333-3-5.6667-5-7-2-0.66667-3.3333-1.6667-4-3-0.66669-2-3.6667-3-9-3-5.3333-1.3333-8-2.3333-8-3 0-1.3333-2-2.3333-6-3l-5-2h4l-3-1-4-1 42-3c28-2 43.667-3 47-3z"/>
  <path d="m349 257v-1h1v2h6l1 1c0.66669 0 1.3333 0.66666 2 2 0.66669 1.3333 1 2.3333 1 3v3h1v1c0.66669 1.3333 1 2 1 2l1 2c0.66669 0.66666 1.3333 2 2 4 0.66669 2.6667 1 4 1 4h1l1 1 2 1h2c0.66669 0 1 0.33334 1 1h1v1h1v1h1v2h-4v2l1 1v1h-1c-1.3333-0.66669-2.3333-1-3-1-0.66669-1.3333-1-1.3333-1 0s-1.6667 2-5 2h-7c-1.3333 0-4.6667 0.66669-10 2-6 0-10.667 0.33331-14 1-3.3333 0.66669-6 0.33331-8-1-1.3333-0.66669-2-1.3333-2-2 0-0.66669-0.33331 0-1 2 0 1.3333-1 1.6667-3 1-2-0.66669-3-0.33331-3 1 0 0.66669-0.33331 1-1 1-1.3333-0.66669-4-1-8-1-4.6667 0-9.3333 0.33331-14 1l-7 1h-11v-1h-22v-4h1v-1h1v-1h1v-1h1l5-4c3.3333-2.6667 6.6667-4 10-4l5-2h2v-1h6v-3c0-1.3333 0.66669-3 2-5s4-3.6667 8-5l10-4c4 0 10.333-0.33334 19-1 8.6667-0.66666 14.667-1.3333 18-2 2.6667-0.66666 4.3333-1.3333 5-2h3z"/>
  <path d="m266 200h4c2 0 3.3333 0.33334 4 1v12h-3c-2 0.66666-3.6667 1-5 1-2 0-6.6667 0.33334-14 1h-12v-1l-1-1c-0.66669-0.66666-1-1-1-1 0-0.66666-0.33334-1-1-1v-3c0-2.6667 0.33334-4 1-4h1l3-1c1.3333-0.66666 2-1 2-1l11-1 11-1z"/>
  <path d="m317 341v-1h1c1.3333 0.66669 2 1 2 1v1h1v1h1v-1h10c0.66669 0 1 0.33331 1 1v1h-1l-9 18c-6 11.333-9 17.333-9 18v1l-1 1-1 1v2h-1v1h1l18 1c11.333 0.66669 17.333 0.66669 18 0 1.3333 0 2-0.33331 2-1 0.66669-1.3333 1-1.6667 1-1h1v1h1l1 1 1 1h1l1 1 1 1h2v1h-8l-7 1h-2l-1 1h-2v3h4l1 1h1v1h-10c-6.6667 0-16.333 0.66669-29 2l-19 1h-5c-3.3333 0-5-0.33331-5-1-0.66669-1.3333-5-1.3333-13 0h-12v1h-1v1h-1v-1h-1v-1c0-0.66669-1.3333-1-4-1l-3-1h1l2-2c1.3333 0 2.6667-0.33331 4-1h1v-1l-1-1v-1h-4c-3.3333 0-6.3333-5.6667-9-17l-3-17-1-2v-2h1l8 1c6 0.66669 11 1 15 1h6v-1h1v-1l1-1v-3c0-0.66669 3.3333-1.3333 10-2h21c7.3333 0 12.667-0.33331 16-1 3.3333 0 5-1 5-3 0.66669-1.3333 0.66669-2.3333 0-3z"/>
  <path d="m256 182h5v1l-1 3v5h1v1h-1c-1.3333 0-3.3333 0.33334-6 1h-6c-1.3333-0.66666-4.6667-0.66666-10 0l-7 1h-3v-8h2l4-1c2.6667 0 4-0.33334 4-1v-1h4c1.3333 0.66666 2 0.66666 2 0h4c2.6667-0.66666 5.3333-1 8-1z"/>
  <path d="m117 139l1 1c0 0.66666-1 1-3 1-2 0.66666-3.3333 0.33334-4-1l-1-1v-5c-1.3333-4-1.6667-6-1-6 0.66666 0 1.6667 0.66666 3 2l4 6c0 1.3333 0.33334 2.3333 1 3z"/>
  <path d="m280 194h5l3 1c2.6667 0.66666 4.3333 1.3333 5 2 0.66669 0.66666 1 1 1 1 0 0.66666-0.66669 1.3333-2 2h-2l1 1 1 1-1 2v2h-2l-1 1-1 1h11l-2 1-2 1h-2v1h-1v1h-1v1h-1v1h1v1l-1 1v1h-1c0 0.66666-1.6667 1.3333-5 2-3.3333 0.66666-7.3333 1.6667-12 3-4 1.3333-9.6667 2.3333-17 3l-10 1c-0.66669 0-1.3333-0.33334-2-1 0-0.66666-0.33331-2-1-4l-1-3-1-1-1-1v-3l-1-1v-1h2v1l1 2v1h12c7.3333-0.66666 12-1 14-1 1.3333 0 3-0.33334 5-1h3v-12c-0.66669-0.66666-2-1-4-1h-7l1-1 2-1h1l1-1c1.3333-0.66666 2.3333-1 3-1h3c1.3333 0 1.6667-0.33334 1-1 0-0.66666 1.6667-1 5-1z"/>
  <path d="m308 177h16v1h1v3c0 2-2.3333 3.3333-7 4l-8 1h-4c-2 0-3.3333-0.66666-4-2v-3l1-2c0.66669 0 1-0.33334 1-1h1c0.66669 0 1.6667-0.33334 3-1z"/>
  <path d="m156 274h2l-18 16c-12 10.667-19.333 17.333-22 20-2 2.6667-8.6667 9-20 19s-18 15.333-20 16c-2 0.66669-8 1.3333-18 2-10.667 0.66669-17 0-19-2-2-1.3333-3-3.6667-3-7 0-4 4-15.333 12-34l12-29v1c0 1.3333 5.3333 2 16 2h23l26-1c17.333-0.66666 26.333-1 27-1 0.66666-1.3333 1.3333-2 2-2z"/>
  <path d="m248 193h2v1h9l7 1c4 0.66666 6 1 6 1h-1c-0.66669 0-1.6667 0.33334-3 1l-1 1h-1l-2 1-1 1h3l-11 1-11 1h-7c-4.6667 0-12.333 0.33334-23 1l-16 1v-1h-1v-1h2l3-1 2-1 12-2 13-4h2l7-1c5.3333-0.66666 8.6667-0.66666 10 0z"/>
  <path d="m347 96v-1l7 2c4 2 7.3333 3 10 3h3l1 1 2 1h1v1h1v2h-1v1h-1l-1 1-1 1h-2l-1 1c-0.66669 0.66666-3.6667 1.3333-9 2l-8 1v5h1v1h1l1 1c0.66669 0 1 0.33334 1 1v1h-1c-0.66669-0.66666-2-2-4-4-2-2.6667-4.3333-4.3333-7-5-3.3333-1.3333-5-1.6667-5-1 0 0.66666-0.33331 1-1 1h-2v-2l-2-1-3-1h1v-1h1v-1h1c1.3333 0 1.6667-0.33334 1-1h-1v-2l1-1c0.66669 0 2-0.66666 4-2 2.6667-1.3333 5.3333-2.3333 8-3h4v-1z"/>
  <path d="m240 226l4 1h2l1 1h1v2h4c3.3333 0.66666 5.3333 1.6667 6 3 0 2 0.33331 3.3333 1 4 0.66669 0.66666 1 1 1 1 0 0.66666 0.33331 1.3333 1 2v1h-3c-1.3333 0.66666-2.3333 1-3 1h-1l-2 1c-2 0.66666-4.3333 1-7 1l-4 1v-1c-0.66669 0-1-0.66666-1-2 0-2-0.66669-2.6667-2-2h-1v-1c0.66666-0.66666 1-2 1-4s-0.33334-4.3333-1-7c0-2.6667 1-3.3333 3-2z"/>
  <path d="m285 298l-1 1-1 1h-1v1h-1v1h-1v2l-1 1v1h3v2h2v1h1v-1h11c8-0.66669 14.333-1.3333 19-2 5.3333-1.3333 8-1.3333 8 0 0 0.66669 0.33331 1 1 1l1 1h7v1h-1v1h-1v1h-1v1h-1v1c0 0.66669-0.66669 0.33331-2-1-1.3333-0.66669-2-0.33331-2 1l-2 2v1h1l-2 1-2 1h-1v1h1v1h1v1l1 1h-2c-1.3333 0-7 0.66669-17 2l-16 2h-9v1h-15v-1c0-0.66669 0.66669-1.3333 2-2 1.3333-1.3333 1.3333-3.3333 0-6-0.66669-2.6667-1.3333-4-2-4-1.3333 0-2.3333-0.66669-3-2l-1-1v-1l6-5c4-3.3333 6.6667-5.3333 8-6 0.66669-0.66669 1.3333-1 2-1h11z"/>
  <path d="m610 192c-0.66669 0-1 0.33334-1 1h-4c-2.6667 0.66666-18 2.6667-46 6l-42 5v-1h1v-8h-1v-1h2v-1h1l1-2c0.66669-2 10.333-4 29-6 18-2 27-2.6667 27-2 0 0.66666 0.66669 1 2 1 2 0 2.6667-0.33334 2-1 0-0.66666 1.6667-1 5-1 4 0.66666 6 1.6667 6 3 0.66669 0.66666 3.3333 1.3333 8 2 5.3333 0.66666 8.3333 0.66666 9 0 0.66669 0 1 0.66666 1 2v3z"/>
  <path d="m498 208h4s-0.66669 0.66666-2 2c-1.3333 0.66666-1.6667 1.3333-1 2 0.66669 1.3333 0 2.3333-2 3l-4 1v1h-1v1h2c2 0 3.3333 0.33334 4 1l1 1h-2v1h-1v1h-1l-1 1c-0.66669 0.66666-2.6667 1.6667-6 3l-5 2v-1c0.66669-0.66666 1-1.3333 1-2 0-0.66666-2.3333-1.6667-7-3l-7-1c0-0.66666-0.33331-1-1-1h-1v-1l-1-1v-1h-2v-1l-1-2v-1l1-1v-2h3l4-1h13c6-0.66666 10.333-1 13-1z"/>
  <path d="m380 250h1l-7 12c-4 8.6667-6.3333 13.333-7 14l-1 1v3s-0.33331-1.3333-1-4c-0.66669-3.3333-1.6667-5-3-5-0.66669 0-1.3333-1-2-3v-2h1c0.66669 0 1.3333 0.66666 2 2 0.66669 1.3333 1.3333 1.3333 2 0 0.66669-1.3333 1-2.6667 1-4v-3h-1v-1h-2c-1.3333 0-2.3333 0.66666-3 2v2c0-0.66666-0.33331-1.6667-1-3s-1.3333-2-2-2l-1-1h-6v-2h1l2-1 2-1 11-1c6.6667-0.66666 10-1.6667 10-3s0.66669-1.6667 2-1c0.66669 0.66666 1.3333 1 2 1z"/>
  <path d="m330 218h1s0.33331 0.33334 1 1v1h6v1h-1v1h-2l-1 1-1 1h-3v1h-1c-0.66669 0.66666-2.3333 1-5 1-2.6667 1.3333-6.6667 3-12 5l-8 3-1 1-1 1h-2c-0.66669 0-1-0.33334-1-1l1-1h-1v-1h1v-4h-1v1h-1v-2l16-4c10.667-3.3333 16-5 16-5v-1z"/>
  <path d="m70 218v-4 5l1 1 1 2v2h10c4.6667-1.3333 8-2 10-2 2-1.3333 5.3333-2 10-2 4.6667-1.3333 11.333-2.3333 20-3 8.6667-0.66666 13.667-1.3333 15-2 1.3333-0.66666 2.3333-0.66666 3 0h4l3 1 7 1c5.3333 0.66666 8 1.6667 8 3 0 0.66666 0.33334 1 1 1s1.3333 2.6667 2 8c0.66666 5.3333 1 8.3333 1 9 0 0.66666 0.33334 1.3333 1 2v1h-3l-3 1h-1v1h-16c-10 0.66666-21.333 1-34 1l-18 1c0-0.66666-1-1-3-1s-3 0.66666-3 2v1l-1-1h-1c-0.66666 0-1.3333-1-2-3 0-2-1.3333-3.3333-4-4-2-0.66666-3.3333-1.6667-4-3 0-1.3333-0.66666-2.6667-2-4s-2.6667-2-4-2c-1.3333-0.66666-2.3333-2-3-4l-1-4h2v-1h2c0.66666 0 1.3333-1 2-3z"/>
  <path d="m294 145v2h-1c-0.66669 0-1-0.33334-1-1v-1c-0.66669-0.66666-1-1-1-1h-1v-1s-0.33331 1-1 3c-0.66669 1.3333-2 1.6667-4 1-2-0.66666-3.3333-0.33334-4 1-0.66669 1.3333-2.3333 1.3333-5 0l-4-2s-0.33331-0.33334-1-1l-1-1h1l10-2h11c1.3333 0.66666 2 1.6667 2 3z"/>
  <path d="m464 221h6l7 1 7 2v3c-0.66669 0.66666-1 1-1 1h-1c-0.66669 0-1.3333 0.33334-2 1-0.66669 0.66666-6 2.3333-16 5l-15 4v-1c0.66669-0.66666 1-1.6667 1-3s-1.6667-2.3333-5-3l-5-1h1v-1h1v-1h1v-1h1v-1h-3v-2h1l6-1c4.6667-0.66666 7.6667-1.3333 9-2 1.3333-0.66666 3.6667-0.66666 7 0z"/>
  <path d="m298 229v1h1v-1h1v4h-1v1h1l-1 1c0 0.66666 0.33331 1 1 1v6h2l4 1c2.6667 0.66666 8.6667 0.66666 18 0 10-0.66666 16-1 18-1h3v2c-0.66669 0.66666-1 1.3333-1 2v2h1v1h1v1h2c1.3333 0.66666 2 1.3333 2 2-1.3333 0.66666-2 1.6667-2 3v2h-2c-0.66669 0.66666-2.3333 1.3333-5 2-3.3333 0.66666-9.3333 1.3333-18 2-8.6667 0.66666-15 1-19 1l-10 4c-4 1.3333-6.6667 3-8 5s-2 3.6667-2 5v3h-2l-3 1h-2v-1c0-0.66666-0.33331-1-1-1h-2v-1h-1v-1h-3v-1h-1v-1h-1v-2h1l-1-1-1-1h-2v-1h1l2-1h2c2 0 4-0.33334 6-1l4-1h1v-1h1v-9s-0.33331-0.66666-1-2c-0.66669-0.66666-2-1.6667-4-3-2.6667-1.3333-4-2.6667-4-4-0.66669-1.3333-1.3333-2.3333-2-3h-1v-4h-1v-2l11-3c8-2 12.667-3.3333 14-4 2-0.66666 3.3333-1.3333 4-2zm44 16v-1 1z"/>
  <path d="m122 152h4v1h1v1h1v1l1 1 1 1v2h-4v-1h-1l-1-1v-1h-6c-1.3333 0-1.6667 1.6667-1 5 0.66666 3.3333 1 5.3333 1 6-0.66666 0.66666-1.6667-0.33334-3-3l-2-3v-1l-1-1v-3c0.66666-1.3333 1.6667-2.3333 3-3 1.3333-0.66666 3.6667-1 7-1z"/>
  <path d="m262 269h3v1h2l1 1 1 1h-1v2h1v1h1v1h3v1h1v1h2c1.3333 0 2 0.33334 2 1-0.66669 0.66666-1 1-1 1h-1s-1.6667 0.66666-5 2c-3.3333 0-6.6667 1.3333-10 4l-5 4h-1v1h-1v1h-1v1h-1v4h22v1c-0.66669 0-1.3333 0.33331-2 1-1.3333 0.66669-4 2.6667-8 6l-6 5v1l1 1c0.66669 1.3333 1.6667 2 3 2 0.66669 0 1.3333 1.3333 2 4 1.3333 2.6667 1.3333 4.6667 0 6-1.3333 0.66669-2 1.3333-2 2v1h5v1h8l2 1 2 1h-2v1h-1v1h-1l-1-1h-1l-1 1c0 1.3333-1 2-3 2s-3.3333 0.66669-4 2c-0.66669 2-1.3333 3-2 3-0.66669 0-1 0.33331-1 1 0.66669 1.3333 1 2 1 2h-1v8l1 1 1 1h1v1l-1 1v1h-1v1h-6c-4 0-9-0.33331-15-1l-8-1h-1c-0.66666-0.66669-1-2.6667-1-6-1.3333-3.3333-2.3333-5.3333-3-6-0.66666 0-2.3333-6-5-18l-4-17v-4c0-2.6667 4.3333-6 13-10 8.6667-3.3333 13-5.3333 13-6l-1-1h1l-2-1c-0.66669 0-1-0.33331-1-1 0-0.66666 0.33331-1 1-1 1.3333-0.66666 2-1.6667 2-3s0.66669-2.3333 2-3c2-0.66666 3-1.6667 3-3l1-2v-1l1-1h3c2.6667 0 4.6667-0.33334 6-1z"/>
  <path d="m560 136h1l1 2c0.66669 1.3333 2 2 4 2h4v1h1v1h-2v-1h-1v2h-2c-2 0.66666-6.3333 1.3333-13 2l-10 1-1 1-2 1h4l-2 1-1 1h1v2h4c1.3333 0 2 0.33334 2 1s0.33331 1.3333 1 2c0.66669 0.66666 1.3333 1.3333 2 2 0 0.66666 0.66669 1.3333 2 2h2v1l-1 2v2h-2c-1.3333 0-2 0.33334-2 1 0 0 0.33331 0.33334 1 1 0.66669 0-1 0.66666-5 2s-7.3333 2.3333-10 3c-2.6667 0.66666-4 1.6667-4 3 0 0.66666-1.6667 1.3333-5 2-3.3333 0-6 0.33334-8 1s-3 0.66666-3 0-1.3333-1-4-1h-5l-1 1-1 1h1c1.3333 0 2 0.66666 2 2 0 0.66666 0.33331 1 1 1 0.66669 0.66666 0.66669 1 0 1s-0.66669 0.33334 0 1 1 1 1 1h1v1h1v1h-2c-2 0-3 0.33334-3 1s-0.33331 1-1 1h-1v1h-1v1h-1v1h1v1h3s-1 0.66666-3 2h-4c-1.3333 0-4.3333 0.33334-9 1l-7 1h-12c-6 0-14.667 0.66666-26 2s-17.333 2.6667-18 4c0 0.66666 0.66669 1 2 1 0.66669 0.66666 0 1-2 1-1.3333 1.3333-1.6667 2-1 2 0.66669 1.3333-1.6667 2-7 2-5.3333 0.66666-8 0.66666-8 0-0.66669-1.3333-2-1.6667-4-1l-3 1h-2c-1.3333 0-6.3333 0.66666-15 2-9.3333 0-16 0.66666-20 2s-10.667 2.6667-20 4l-14 2-1 1h-1v-1h-1l-3-1h-4v-2h2l1-1h3l5-2 5-2h1l2-2c1.3333-1.3333 5.6667-2.3333 13-3 6.6667-0.66666 10.667-1.3333 12-2h3v-5l-1-5v-1h-4l-7 1c-4.6667 0.66666-7 1-7 1h-1l-1-1h-3l-1-1v-2h-3l1-1 1-1h7v-7h-8l-7-1h-1v-2h6l1-1 1-1h8c5.3333-0.66666 8-1.6667 8-3 0.66669-0.66666 2.3333-1.3333 5-2 2.6667-0.66666 4-1.3333 4-2 0-0.66666 1.6667-1.3333 5-2 3.3333-0.66666 6-1 8-1 2.6667-1.3333 4.6667-2 6-2h3v-1h1v-5h2v-1h1v-1h-1c-0.66669 0-2-0.66666-4-2h-4v-1h1v-1h1l4-1c2.6667-0.66666 7.3333-1 14-1 7.3333 0 13.333-0.66666 18-2 5.3333-1.3333 8.6667-2.3333 10-3h2v-2h-2l-3-1h1v-2h37c23.333 0 35.667-0.33334 37-1h1l11-1h23c8 0 13-0.33334 15-1 2.6667-0.66666 4-1 4-1zm-54 45v-1 1z"/>
  <path d="m96 196h3v1l1 1v1h1v1h-1v1h-1v1h-1l-1 1c-0.66666 0.66666-1 1.3333-1 2-0.66666 0.66666-3 1.3333-7 2-4 0.66666-5.6667 1.6667-5 3 0 1.3333-0.66666 2.3333-2 3-0.66666 0.66666-2 1-4 1h-2l-1 1v1h-5v-4c0-1.3333 1-2 3-2l3-1v-2h1v-1h-9c-6 0-10.667 0.33334-14 1l-5 1c0.66666-0.66666 1-1.3333 1-2v-3h-1v-1c-0.66666 0-1.6667-1-3-3l-3-3v-2l1-1v-2h-1v-1h2l1-1c0-0.66666 2.3333-1 7-1 4.6667-1.3333 11.667-1.3333 21 0 8.6667 0.66666 13 1.3333 13 2 0 0.66666 1 1.3333 3 2 2.6667 1.3333 4 2.3333 4 3 0 0.66666 0.66666 1 2 1z"/>
  <path d="m348 193h2l1 1h1l7-1 7-1h4v1l1 5v5h-3c-1.3333 0.66666-5.3333 1.3333-12 2-7.3333 0.66666-11.667 1.6667-13 3l-2 2v-2c0.66669-0.66666 1-1.3333 1-2 1.3333-0.66666 1.3333-1.3333 0-2v-2h-1l-1-1-1-1h-1l2-1c0.66669 0 1.3333-1 2-3 0-2.6667 1-3.6667 3-3 2 0.66666 3 0.66666 3 0z"/>
  <path d="m324 215v2h4c2.6667 0 4 0.33334 4 1v1h-2c-0.66669 0.66666-6 2.3333-16 5l-16 4v1c-0.66669 0.66666-2 1.3333-4 2-1.3333 0.66666-6 2-14 4l-11 3v2h-1s-1.3333 0.33334-4 1h-3v-1c-0.66669-0.66666-1-1.3333-1-2 0 0-0.33331-0.33334-1-1s-1-2-1-4c-0.66669-1.3333-2.6667-2.3333-6-3h-4v-2h-1l-1-1h-2v-1l10-1c7.3333-0.66666 13-1.6667 17-3 4.6667-1.3333 8.6667-2.3333 12-3 3.3333-0.66666 5-1.3333 5-2h2v1h5c2 0 3 0.66666 3 2 0 0.66666 4 0 12-2 8.6667-1.3333 13.333-2.3333 14-3z"/>
  <path d="m432 140v2h-1l3 1h2v2h-2c-1.3333 0.66666-4.6667 1.6667-10 3-4.6667 1.3333-10.667 2-18 2-6.6667 0-11.333 0.33334-14 1l-4 1h-1v1h-2c-0.66669 0.66666-3.6667 1-9 1-6 0-10.667 0.66666-14 2-3.3333 1.3333-9.3333 2.3333-18 3-8 0.66666-12.667 1-14 1-1.3333 0-4 0.33334-8 1-3.3333 0.66666-9.6667 2.3333-19 5s-15 4-17 4l-4 2h-7v1h-2c-1.3333-0.66666-2.6667-1-4-1s-5-0.33334-11-1l-9-1-4-1-4-1h-3c-1.3333 0-2.6667-0.33334-4-1l-1-1h-1v-1h-1v-1h-2v-1h-1v-1l1-1 1-1v-1h1v-1h2l8-4c5.3333-2.6667 8.6667-4.3333 10-5h2l7-1c5.3333-1.3333 8.6667-2 10-2h2l4 2c2.6667 1.3333 4.3333 1.3333 5 0 0.66669-1.3333 2-1.6667 4-1 2 0.66666 3.3333 0.33334 4-1 0.66669-2 1-3 1-3v1h1s0.33331 0.33334 1 1v1h1s0.33331 0.33334 1 1h1c0.66669 0 1-0.33334 1-1h10c6.6667 0 10.667-0.33334 12-1 0.66669 0 1-0.33334 1-1s2.3333-0.66666 7 0h8c0.66669 0 3.3333-0.33334 8-1 4 0 6-0.33334 6-1h3c1.3333 0 2.3333-0.66666 3-2h14v-3h-1v-1h-3v-2h22c14.667 0 26 1 34 3 7.3333 2 11.333 3 12 3z"/>
  <path d="m172 242h16v1h-1v1h-3l-2 1h-1c0 0.66666-5.6667 1.6667-17 3s-18.667 2.3333-22 3c-4 0.66666-8.6667 1.3333-14 2-5.3333 0.66666-8 0.66666-8 0-0.66666-0.66666-1.3333-1-2-1-1.3333 0-2.3333-0.66666-3-2-0.66666-1.3333-2-2-4-2h-7l-6-1-5-1h-1v-1l18-1c12.667 0 24-0.33334 34-1h17l1-1h10z"/>
  <path d="m241 133v-1h5v2l-6 5-6 5h-2v3h-1v1h13c6 0 9 0.33334 9 1h-2c-1.3333 0.66666-4.6667 2.3333-10 5l-8 4h-2v1h-1v1l-1 1-1 1v1h1v1h2v1h1v1h1l1 1c1.3333 0.66666 2.6667 1 4 1h3l4 1 4 1h-1l-7 1c-4.6667 0.66666-8 1.6667-10 3s-4.6667 2-8 2l-5 2h-2l2 1 1 1h-1l-1 1-1 1v3h-2l-3-1h-2v1h-1v-1h-3l-1-1-1-1h-1c-0.66666 0-0.66666-0.66666 0-2 0-1.3333 0.33334-2.6667 1-4 0-1.3333-0.66666-2-2-2s-3-3.6667-5-11l-2-10 1 1v1h2l2-1h1l16-8c10.667-5.3333 16-8.3333 16-9h1c0.66666 0 1-0.33334 1-1h2v-1h1v-1h3v-1h1z"/>
  <path d="m362 317h3v1h-2v1h1v1h3l1 1 2 1h2l2 2 3 2h-5v1h-1v1h1v1h-1c-0.66669 0.66669-9.6667 1.3333-27 2l-26 2v5h-1v-1c-0.66669-0.66669-1-1.6667-1-3 0-2-1-3-3-3s-3-0.33331-3-1c0.66669-1.3333-4-2-14-2h-14v1h-1v1c-0.66669 0-1-0.33331-1-1s-0.66669-1-2-1h-11v-1h17c4-0.66669 5.3333-1 4-1h-2l16-2c10-1.3333 15.667-2 17-2h2l19-2c12-1.3333 19.333-2.3333 22-3z"/>
  <path d="m441 225v-1h1l1 1c0.66669 0.66666 1 1 1 1v1h-1v1h-1v1h-1v1h-1l5 1c3.3333 0.66666 5 1.6667 5 3s-0.33331 2.3333-1 3v1h-1c-1.3333 0-12.667 1.6667-34 5-22 2.6667-33 4.3333-33 5v2h-1c-0.66669 0-1.3333-0.33334-2-1-1.3333-0.66666-2-0.33334-2 1s-3.3333 2.3333-10 3l-11 1-2 1-2 1h-2v1h-1v-2c0-1.3333 0.66669-2.3333 2-3 0-0.66666-0.66669-1.3333-2-2h-2v-1h-1v-1h-1v-2h-1v-1h-1v-1h2v-1l1-1h1l2-1 2-1 6 1c3.3333 0.66666 6 1 8 1s4.6667-1 8-3c4-2 8.6667-3 14-3 6-1.3333 13.333-2.6667 22-4 8-1.3333 14.667-2 20-2 5.3333-1.3333 8.6667-2.3333 10-3 1.3333-0.66666 2-1.3333 2-2h1z"/>
  <path d="m338 200h2c0 0.66666 0.33331 1 1 1v1h1v2c1.3333 0.66666 1.3333 1.3333 0 2 0 0.66666-0.33331 1.3333-1 2v2h-1s-1.6667 0.66666-5 2l-5 2h-3l-1 1h-2c-0.66669 0.66666-5.3333 1.6667-14 3-8 2-12 2.6667-12 2 0-1.3333-1-2-3-2h-5v-1h-1v-1l1-1v-1h-1v-1h1v-1h1v-1h1v-1h2l2-1c1.3333-0.66666 2-1 2-1l3-1c2-0.66666 7-1.6667 15-3 8.6667-1.3333 13-2.3333 13-3l1-1h3c0.66669 0 1.6667 0.33334 3 1 1.3333 0 2-0.33334 2-1z"/>
  <path d="m229 183h15c0 0.66666-2.3333 1-7 1l-7 2h-2v8h1l-13 4-12 2-2 1-3 1h-2v1h1v1h-18c-3.3333 0-5 0.33334-5 1-0.66666 0.66666-1.6667 1-3 1l-3 1v-1c0.66666-0.66666 0.33334-1.3333-1-2h-1v-1h-1c0 0.66666-1 0.66666-3 0-2 0-3.6667-1.3333-5-4v-7c0-2.6667-0.66666-4.3333-2-5l-2-1h-2v-1h-1v-1l9 1c6.6667 0.66666 15.667 0.66666 27 0l17-1h4v1h1v-1h2l3 1h6v-1c0-0.66666 3-1 9-1z"/>
  <path d="m216 6h2l4 1 3 1h-4l5 2c4 0.66667 6 1.6667 6 3 0 0.66667 2.6667 1.6667 8 3 5.3333 0 8.3333 1 9 3 0.66669 1.3333 2 2.3333 4 3 2 1.3333 3.6667 3.6667 5 7 2.6667 3.3333 4 5 4 5v1h1v1c-0.66669 0.66666-0.33331 2.3333 1 5s2 5.3333 2 8c1.3333 2.6667 1.3333 4.3333 0 5-0.66669 0-1 0.66666-1 2 0 0.66666-0.33331 1-1 1-0.66669 0.66666-1.3333 1.6667-2 3 0 1.3333-3.3333 2.3333-10 3-6 0.66666-12 1-18 1h-11v2l1 2 1 4c0.66666 2.6667 0.66666 4 0 4s-0.66666 1.3333 0 4c0.66666 2 1 4.6667 1 8 0 2.6667-0.66666 4-2 4-1.3333 0.66666-2 1.3333-2 2v1h-2l-1 1h-2v2h-1c-1.3333 0-2 0.33334-2 1s-3.3333 2.6667-10 6l-10 5-1 4v4h-1v-9c0-6-0.33334-11.667-1-17 0-5.3333 1-8.3333 3-9l4-1h-3c-2 0-3.6667-10.667-5-32-2-21.333-1.3333-32.333 2-33l6-1 2-1h1v-2h-4c-2.6667-0.66667-5-1-7-1h-2v-2l2-1 2-1h10c7.3333-1.3333 12-2 14-2z"/>
  <path d="m329 200v1c0 0.66666-4.3333 1.6667-13 3-8 1.3333-13 2.3333-15 3l-3 1h-11l1-1 1-1h2v-2l1-2-1-1-1-1h2c1.3333-0.66666 2-1.3333 2-2l4-1c3.3333-0.66666 6.6667-1 10-1 3.3333-1.3333 7.3333-1.6667 12-1 4 0 6.6667 0.33334 8 1 0 1.3333 0.33331 2.6667 1 4z"/>
  <path d="m248 117l2 1h6c1.3333-0.66666 2-0.66666 2 0v2c-0.66669 0-1.3333 0.33334-2 1v1c-0.66669 0-0.66669 0.33334 0 1 0 0.66666-0.33331 1-1 1h-1l-4 1h-4v-4c0-2.6667 0.66669-4 2-4z"/>
  <path d="m108 126h4v-1h1v1h1c0.66666 0 2 2.6667 4 8 2.6667 4.6667 4 7.3333 4 8v2h1v1h1v2l1 1v1h-4v-1c-0.66666-0.66666-1-1.3333-1-2 0-0.66666-1-1-3-1s-3 1-3 3c0 1.3333-0.33334 2-1 2h-1v1h-1v-1h-1v-1h-1v-2c-0.66666-1.3333-1.3333-4.3333-2-9l-2-6v-3c0-2 1-3 3-3zm9 13l1 1c0 0.66666-1 1-3 1-2 0.66666-3.3333 0.33334-4-1l-1-1v-5c-1.3333-4-1.6667-6-1-6 0.66666 0 1.6667 0.66666 3 2l4 6c0 1.3333 0.33334 2.3333 1 3z"/>
  <path d="m252 406l-1-2h1c0.66669 0 1.3333 0.33331 2 1 0 0.66669 0.33331 1 1 1s1.3333-0.33331 2-1c0-0.66669 1-1 3-1h2l1 4c0.66669 2 1 3.3333 1 4h-1l-3 1-3 1h-4v-2c-0.66669-0.66669-1-1.3333-1-2v-4z"/>
  <path d="m236 240h2c1.3333-0.66666 2 0 2 2 0 1.3333 0.33331 2 1 2v1h-1l-2 1h-1l-1 1-1 1h-1v1h1v1l3 1c2.6667 0.66666 4.3333 2.3333 5 5 0.66669 2.6667 1.6667 5.6667 3 9 0 3.3333 1 5 3 5h4l-1 1v1l-1 2c0 1.3333-1 2.3333-3 3-1.3333 0.66666-2 1.6667-2 3s-0.66669 2.3333-2 3c-0.66669 0-1 0.33334-1 1 0 0.66669 0.33331 1 1 1l2 1h-28l-3-1v-1c-0.66666-0.66666-1-2-1-4-0.66666-2.6667-4.6667-4-12-4-6.6667 0-12.667-0.66666-18-2l-8-1v-1h-1l-1-1h-1v-1l1-1c0-0.66666-0.33334-1-1-1h-1l-1-1h-1v-2l3-1c2-0.66666 3.3333-2 4-4 0-1.3333 0.33334-2 1-2s1 0.33334 1 1 0.66666 1 2 1h2l1-1h1v-3h-3c-1.3333 0-2-0.33334-2-1h-1v-1h1v-3l3-1c2 0 3-0.33334 3-1h2l2-1 3-3c1.3333-2 2.6667-3 4-3s2.6667-0.66666 4-2h3c1.3333 0.66666 2 0.66666 2 0 0-1.3333 1.3333-1.3333 4 0 3.3333 1.3333 6.3333 2 9 2 2.6667 1.3333 4.3333 1.6667 5 1 1.3333 0 2-0.33334 2-1 0-1.3333 1-1.6667 3-1 2 0.66666 3.3333 0.66666 4 0 0.66666-0.66666 1.6667-1 3-1z"/>
  <path d="m233 130h3v1h1v-1h1v2h-1s-0.33334 0.66666-1 2l-2 2c-0.66666 0-1 0.33334-1 1h-1c0 0.66666-5.3333 3.6667-16 9l-16 8h-1l-2 1h-2v-1l-1-1v-7c0-5.3333-0.33334-9-1-11v-3h1v-2l2-1c2-0.66666 7.3333-1 16-1s14 0.33334 16 1c1.3333 0.66666 3 1 5 1z"/>
 </g>
</svg>
